<?xml version="1.0" encoding="iso-8859-1"?>
<!-- Generator: Adobe Illustrator 19.0.0, SVG Export Plug-In . SVG Version: 6.00 Build 0)  -->
<svg version="1.1" id="Layer_1" xmlns="http://www.w3.org/2000/svg" xmlns:xlink="http://www.w3.org/1999/xlink" x="0px" y="0px"
	 viewBox="0 0 494.72 494.72" style="enable-background:new 0 0 494.72 494.72;" xml:space="preserve">
<g>
	<path d="M323.191,4.266L171.522,47.394L4.86,0v443.062l166.662,47.394l151.669-43.128L489.86,494.72V51.659L323.191,4.266z
		 M459.86,259.332l-65.917-65.917c6.283-11.664,9.662-24.816,9.662-38.141c0-20.534-7.747-39.287-20.458-53.513l38.352-38.352
		l38.361,10.908V259.332z M198.79,286.118l70.046-70.046l54.355,68.339l52.862-66.461l34.238,34.238L287.576,374.904L198.79,286.118
		z M34.86,220.863l82.798-82.799l33.057,33.057L34.86,286.978V220.863z M34.86,329.404l137.068-137.07l39.11,39.11L34.86,407.622
		V329.404z M177.577,307.331l45.13,45.131l-94.49,94.49l-70.277-19.985L177.577,307.331z M373.605,155.274
		c0,11.437-3.752,22.226-10.825,31.169l-39.589,49.774l-39.563-49.742c-7.099-8.976-10.851-19.766-10.851-31.202
		c0-27.798,22.616-50.414,50.414-50.414S373.605,127.476,373.605,155.274z M388.466,54.016l-29.348,29.348
		c-10.821-5.428-23.019-8.503-35.927-8.503c-44.34,0-80.414,36.073-80.414,80.414c0,12.481,2.963,24.812,8.51,35.921l-19.036,19.036
		l-93.38-93.38l40.501-40.501l143.818-40.896L388.466,54.016z M142.864,70.434L34.86,178.438V39.721L142.864,70.434z
		 M161.25,456.345l82.67-82.67l50.612,50.612l-123.011,34.979L161.25,456.345z M331.041,418.37l-22.253-22.253l122.716-122.716
		l28.356,28.356V455L331.041,418.37z"/>
	<circle cx="323.191" cy="155.274" r="0.527"/>
	<path d="M307.664,155.274c0,8.562,6.965,15.527,15.527,15.527c8.561,0,15.526-6.965,15.526-15.527s-6.965-15.526-15.526-15.526
		C314.63,139.748,307.664,146.712,307.664,155.274z"/>
</g>
<g>
</g>
<g>
</g>
<g>
</g>
<g>
</g>
<g>
</g>
<g>
</g>
<g>
</g>
<g>
</g>
<g>
</g>
<g>
</g>
<g>
</g>
<g>
</g>
<g>
</g>
<g>
</g>
<g>
</g>
</svg>
